<?xml version="1.0" encoding="UTF-8"?><svg id="Layer_2" xmlns="http://www.w3.org/2000/svg" viewBox="0 0 253.42 19.82"><defs><style>.cls-1{fill:#fff;}.cls-2{fill:#ffb81b;}.cls-3{stroke:#fff;}.cls-3,.cls-4{fill:none;stroke-miterlimit:10;stroke-width:1.4px;}.cls-4{stroke:#ffb81b;}</style></defs><g id="favicon"><path class="cls-2" d="m28.97,4.29c1.16,1.06,1.75,2.61,1.75,4.64,0,1.31-.29,2.45-.85,3.43-.57.98-1.39,1.74-2.47,2.28-1.07.54-2.36.81-3.84.81l-1.12-.02c-.7-.02-1.2-.04-1.51-.04-1.24,0-2.16.02-2.77.05v-.36c.4-.02.69-.07.87-.14.19-.07.31-.21.38-.41.07-.2.1-.53.1-.99V4.61c0-.46-.03-.79-.1-.99-.07-.2-.19-.34-.38-.41-.19-.07-.48-.12-.87-.14v-.36c.5.04,1.23.05,2.18.05h.56l.72-.02c.98-.02,1.69-.04,2.11-.04,2.34,0,4.09.53,5.26,1.59Zm-6.11-1.14c-.19.08-.32.23-.39.45-.07.22-.11.54-.11.97v9c0,.43.04.76.11.97.07.22.2.37.39.45.19.08.47.13.85.13,1.45,0,2.48-.51,3.1-1.52.61-1.01.92-2.55.92-4.6s-.32-3.56-.95-4.53-1.66-1.45-3.09-1.45c-.37,0-.65.04-.84.13Z"/><path class="cls-2" d="m35.69,13.77c0,.49.09.83.26,1.02.17.19.47.28.89.28v.38c-1.2-.05-2-.07-2.39-.07-.37,0-1.21.02-2.5.07v-.38c.43,0,.73-.09.9-.28.17-.19.25-.52.25-1.02v-5.67c0-.55-.08-.95-.25-1.21s-.47-.38-.9-.38v-.38c.38.04.76.05,1.12.05,1.07,0,1.94-.08,2.63-.25v7.83Zm-.21-11.91c.29.25.44.58.44,1.02s-.15.77-.44,1.02-.69.37-1.2.37-.9-.12-1.2-.37-.44-.58-.44-1.02.15-.77.44-1.02.69-.37,1.2-.37.9.12,1.2.37Z"/><path class="cls-2" d="m45.53,7.62c-.17-.16-.25-.39-.25-.69s.07-.58.22-.88c-.29.12-.53.26-.71.41-.19.15-.35.34-.48.57.37.44.56,1.02.56,1.73,0,.95-.33,1.66-.98,2.14-.65.48-1.52.72-2.6.72h-.32c-.49.29-.74.61-.74.95,0,.38.24.58.72.58h1.96c1.06,0,1.9.2,2.53.58s.95.99.95,1.79c0,.61-.2,1.17-.58,1.67-.39.5-.98.9-1.77,1.2s-1.76.45-2.92.45-2.1-.15-2.8-.44c-.7-.29-1.05-.72-1.05-1.27,0-.37.17-.71.5-1s.83-.52,1.49-.69l.16.29c-.43.36-.65.77-.65,1.24,0,.5.23.89.68,1.16.46.27,1.09.41,1.89.41s1.52-.17,2.04-.5c.52-.34.78-.81.78-1.42,0-.4-.15-.71-.44-.94s-.81-.34-1.54-.34h-1.12c-.77,0-1.37-.13-1.8-.39s-.65-.65-.65-1.18c0-.44.16-.84.47-1.19.31-.35.79-.68,1.42-1.01-.86-.11-1.55-.4-2.05-.86s-.76-1.12-.76-1.94c0-.95.33-1.66.98-2.14.65-.48,1.52-.72,2.6-.72,1.2,0,2.12.28,2.75.85.23-.32.51-.58.85-.77.34-.19.68-.29,1.03-.29s.64.11.85.32.32.48.32.82-.09.6-.28.78-.41.28-.66.28-.44-.08-.61-.24Zm-3.48,3.09c.17-.38.26-1.04.26-1.96s-.09-1.58-.26-1.96c-.17-.38-.43-.58-.77-.58s-.59.19-.76.58c-.17.38-.26,1.04-.26,1.96s.09,1.58.26,1.96c.17.38.43.58.76.58s.59-.19.77-.58Z"/><path class="cls-2" d="m51.31,13.77c0,.49.09.83.26,1.02.17.19.47.28.89.28v.38c-1.2-.05-2-.07-2.39-.07-.37,0-1.21.02-2.5.07v-.38c.43,0,.73-.09.9-.28.17-.19.25-.52.25-1.02v-5.67c0-.55-.08-.95-.25-1.21s-.47-.38-.9-.38v-.38c.38.04.76.05,1.12.05,1.07,0,1.94-.08,2.63-.25v7.83Zm-.21-11.91c.29.25.44.58.44,1.02s-.15.77-.44,1.02-.69.37-1.2.37-.9-.12-1.2-.37-.44-.58-.44-1.02.15-.77.44-1.02.69-.37,1.2-.37.9.12,1.2.37Z"/><path class="cls-2" d="m56.89,6.14h2.12v.36h-2.12v7.27c0,.36.06.62.19.76.13.15.33.23.6.23.52,0,.92-.36,1.22-1.08l.31.16c-.46,1.24-1.28,1.85-2.47,1.85-.79,0-1.39-.2-1.8-.61-.25-.25-.42-.57-.51-.94s-.13-.9-.13-1.56v-6.08h-1.51v-.36h1.51v-2.38c1,0,1.86-.19,2.59-.58v2.95Z"/><path class="cls-2" d="m60.23,14.98c-.38-.4-.57-.92-.57-1.57,0-.54.14-.99.42-1.34.28-.35.62-.63,1.03-.82.4-.19.92-.4,1.54-.61.66-.23,1.14-.44,1.45-.62.31-.19.46-.44.46-.77v-1.4c0-.5-.12-.9-.35-1.18-.23-.28-.6-.42-1.09-.42-.58,0-1.01.14-1.31.43.34.12.6.3.78.54.19.24.28.52.28.85,0,.41-.14.73-.41.97-.28.24-.61.36-1.01.36-.42,0-.74-.13-.97-.4-.23-.26-.34-.59-.34-.99,0-.34.08-.62.24-.86.16-.23.41-.45.75-.66.32-.19.72-.34,1.2-.45.47-.11.99-.16,1.56-.16s1.1.06,1.53.18c.43.12.79.32,1.08.61.26.26.44.59.53.97s.13.91.13,1.57v4.9c0,.29.03.49.08.61s.16.18.32.18c.18,0,.4-.1.65-.31l.18.31c-.54.44-1.2.67-1.98.67-.66,0-1.12-.13-1.39-.4s-.4-.62-.41-1.06c-.6.97-1.48,1.46-2.65,1.46-.77,0-1.34-.2-1.72-.59Zm4.33-1.3v-3.69c-.14.24-.45.5-.92.79-.47.3-.82.6-1.06.9-.24.3-.36.73-.36,1.3,0,.49.1.85.31,1.09s.47.35.81.35c.47,0,.88-.25,1.22-.74Z"/><path class="cls-2" d="m72.57,13.77c0,.49.08.83.25,1.02.17.19.47.28.9.28v.38c-1.25-.05-2.05-.07-2.41-.07-.41,0-1.24.02-2.48.07v-.38c.42,0,.72-.09.89-.28.17-.19.26-.52.26-1.02V3.51c0-.55-.09-.95-.26-1.21s-.47-.38-.89-.38v-.38c.38.04.76.05,1.12.05,1.04,0,1.92-.08,2.63-.25v12.42Z"/><path class="cls-2" d="m84.86,2.65c.37.12.75.29,1.13.52.13.07.25.13.35.18s.19.07.26.07c.11,0,.19-.06.25-.19.06-.13.11-.33.14-.6h.41c-.06.8-.09,2.17-.09,4.1h-.41c-.05-.65-.2-1.27-.44-1.85-.25-.59-.59-1.06-1.04-1.43s-.97-.55-1.58-.55-1.06.17-1.43.5-.55.78-.55,1.34c0,.42.09.79.27,1.1.18.31.43.6.76.86.32.26.82.61,1.49,1.05l.58.4c.71.47,1.27.88,1.67,1.22.41.35.74.75,1,1.21s.39,1,.39,1.61c0,.77-.2,1.41-.59,1.93-.4.52-.93.92-1.61,1.18-.68.26-1.43.4-2.26.4-.67,0-1.23-.06-1.67-.18-.44-.12-.85-.28-1.22-.49-.26-.17-.47-.25-.61-.25-.11,0-.19.06-.25.19s-.11.33-.14.6h-.41c.05-.76.07-2.38.07-4.86h.41c.08,1.34.38,2.43.9,3.27s1.31,1.25,2.38,1.25c.65,0,1.18-.17,1.6-.52.42-.35.63-.85.63-1.49s-.22-1.25-.65-1.73c-.43-.48-1.12-1.02-2.05-1.62-.72-.47-1.3-.88-1.73-1.22-.43-.35-.79-.76-1.06-1.23-.28-.47-.41-1.02-.41-1.65,0-.72.18-1.33.55-1.83s.86-.87,1.47-1.11c.61-.24,1.28-.36,2.02-.36.62,0,1.12.06,1.49.18Z"/><path class="cls-2" d="m97.91,6.14v.36c-.25.07-.48.23-.68.46-.2.23-.39.6-.57,1.09l-3.22,9.05c-.24.62-.5,1.05-.79,1.28-.35.3-.87.45-1.57.45-.5,0-.96-.12-1.36-.37s-.6-.6-.6-1.07c0-.37.13-.67.4-.89.26-.22.61-.33,1.04-.33.41,0,.74.1.98.3.25.2.37.48.37.84,0,.25-.08.48-.23.69s-.38.37-.67.48c.08.01.22.02.41.02.74,0,1.29-.47,1.64-1.42l.29-.86-3.82-8.68c-.19-.41-.38-.68-.56-.81-.18-.13-.37-.2-.56-.2v-.38c.79.07,1.61.11,2.47.11.71,0,1.54-.04,2.5-.11v.38c-.38,0-.67.03-.85.08-.19.05-.28.2-.28.42,0,.13.04.3.13.5l2.2,5.31,1.24-3.46c.19-.56.29-1.04.29-1.44,0-.88-.44-1.36-1.33-1.44v-.36c.56.04,1.15.05,1.75.05s1.06-.02,1.39-.05Z"/><path class="cls-2" d="m107.13,6.59c.2.23.35.52.43.88.08.36.13.85.13,1.46v4.84c0,.49.09.83.26,1.02.17.19.47.28.89.28v.38c-1.2-.05-1.99-.07-2.38-.07-.36,0-1.14.02-2.34.07v-.38c.36,0,.61-.09.76-.28.14-.19.22-.52.22-1.02v-5.6c0-.49-.08-.86-.24-1.12s-.45-.38-.87-.38c-.49,0-.91.2-1.26.6-.35.4-.52.9-.52,1.49v5c0,.49.07.83.22,1.02.14.19.4.28.76.28v.38c-1.1-.05-1.85-.07-2.23-.07-.36,0-1.19.02-2.48.07v-.38c.43,0,.73-.09.9-.28.17-.19.25-.52.25-1.02v-5.67c0-.55-.08-.95-.25-1.21s-.47-.38-.9-.38v-.38c.38.04.76.05,1.12.05,1.07,0,1.94-.08,2.63-.25v1.62c.54-1.12,1.52-1.67,2.95-1.67.91,0,1.57.23,1.98.7Z"/><path class="cls-2" d="m113.16,6.14h2.12v.36h-2.12v7.27c0,.36.06.62.19.76.13.15.33.23.6.23.52,0,.92-.36,1.22-1.08l.31.16c-.46,1.24-1.28,1.85-2.47,1.85-.79,0-1.39-.2-1.8-.61-.25-.25-.42-.57-.51-.94s-.13-.9-.13-1.56v-6.08h-1.51v-.36h1.51v-2.38c1,0,1.86-.19,2.59-.58v2.95Z"/><path class="cls-2" d="m119.49,7.56c.54-1.12,1.52-1.67,2.93-1.67.94,0,1.6.23,1.98.7.2.23.35.53.44.89.09.37.13.85.13,1.45v4.84c0,.49.08.83.25,1.02.17.19.47.28.9.28v.38c-1.25-.05-2.04-.07-2.38-.07-.41,0-1.19.02-2.34.07v-.38c.36,0,.61-.09.76-.28.14-.19.22-.52.22-1.02v-5.6c0-.49-.08-.86-.24-1.12s-.45-.38-.87-.38c-.5,0-.93.19-1.27.58-.34.39-.51.88-.51,1.48v5.02c0,.49.07.83.22,1.02.14.19.4.28.76.28v.38c-1.15-.05-1.9-.07-2.23-.07-.41,0-1.24.02-2.48.07v-.38c.42,0,.72-.09.89-.28.17-.19.26-.52.26-1.02V3.53c0-.55-.09-.95-.26-1.21-.17-.25-.47-.38-.89-.38v-.38c.38.04.76.05,1.12.05,1.04,0,1.92-.08,2.63-.25v6.19Z"/><path class="cls-2" d="m134.45,12.78l.32.11c-.24.78-.67,1.44-1.29,1.99-.62.55-1.39.82-2.31.82-1.27,0-2.28-.41-3.03-1.21-.75-.81-1.12-2.01-1.12-3.59s.4-2.86,1.21-3.72c.8-.86,1.87-1.29,3.2-1.29,2.26,0,3.38,1.33,3.38,4h-5.06c-.01.18-.02.46-.02.85,0,.79.11,1.45.33,1.98.22.53.51.91.86,1.15.35.24.73.36,1.14.36.98,0,1.78-.48,2.38-1.44Zm-4.2-5.71c-.28.53-.46,1.36-.53,2.47h2.83c.02-.95-.07-1.73-.28-2.35s-.53-.93-.95-.93-.79.27-1.07.8Z"/><path class="cls-2" d="m140.68,6.06c.38.11.68.24.88.39.12.08.23.13.32.13.11,0,.2-.06.28-.17s.13-.28.15-.5h.38c-.05.61-.07,1.67-.07,3.17h-.38c-.11-.79-.35-1.46-.71-1.99-.37-.53-.9-.8-1.59-.8-.36,0-.66.1-.89.31-.23.21-.35.49-.35.85,0,.41.14.76.41,1.05.28.29.71.65,1.3,1.07l.52.38c.73.55,1.27,1.04,1.62,1.48.35.43.52.97.52,1.62,0,.53-.15,1-.46,1.4-.31.41-.72.72-1.23.94s-1.09.32-1.71.32c-.66,0-1.22-.13-1.69-.38-.38-.19-.66-.32-.83-.38-.12-.04-.22,0-.31.12s-.16.29-.21.51h-.38c.05-.68.07-1.88.07-3.6h.38c.24,2.21,1.05,3.31,2.43,3.31.35,0,.64-.1.89-.31s.37-.53.37-.96c0-.33-.08-.64-.22-.9-.15-.26-.34-.5-.57-.7-.23-.2-.57-.49-1.03-.85-.54-.43-.95-.78-1.23-1.04-.28-.26-.52-.58-.72-.94-.2-.36-.3-.76-.3-1.21,0-.77.3-1.37.9-1.82.6-.44,1.33-.67,2.2-.67.46,0,.88.06,1.26.17Z"/><path class="cls-2" d="m147.92,13.77c0,.49.09.83.26,1.02.17.19.47.28.89.28v.38c-1.2-.05-2-.07-2.39-.07-.37,0-1.21.02-2.5.07v-.38c.43,0,.73-.09.9-.28.17-.19.25-.52.25-1.02v-5.67c0-.55-.08-.95-.25-1.21s-.47-.38-.9-.38v-.38c.38.04.76.05,1.12.05,1.07,0,1.94-.08,2.63-.25v7.83Zm-.21-11.91c.29.25.44.58.44,1.02s-.15.77-.44,1.02-.69.37-1.2.37-.9-.12-1.2-.37-.44-.58-.44-1.02.15-.77.44-1.02.69-.37,1.2-.37.9.12,1.2.37Z"/><path class="cls-2" d="m154.66,6.06c.38.11.68.24.88.39.12.08.23.13.32.13.11,0,.2-.06.28-.17s.13-.28.15-.5h.38c-.05.61-.07,1.67-.07,3.17h-.38c-.11-.79-.35-1.46-.71-1.99-.37-.53-.9-.8-1.59-.8-.36,0-.66.1-.89.31-.23.21-.35.49-.35.85,0,.41.14.76.41,1.05.28.29.71.65,1.3,1.07l.52.38c.73.55,1.27,1.04,1.62,1.48.35.43.52.97.52,1.62,0,.53-.15,1-.46,1.4-.31.41-.72.72-1.23.94s-1.09.32-1.71.32c-.66,0-1.22-.13-1.69-.38-.38-.19-.66-.32-.83-.38-.12-.04-.22,0-.31.12s-.16.29-.21.51h-.38c.05-.68.07-1.88.07-3.6h.38c.24,2.21,1.05,3.31,2.43,3.31.35,0,.64-.1.89-.31s.37-.53.37-.96c0-.33-.08-.64-.22-.9-.15-.26-.34-.5-.57-.7-.23-.2-.57-.49-1.03-.85-.54-.43-.95-.78-1.23-1.04-.28-.26-.52-.58-.72-.94-.2-.36-.3-.76-.3-1.21,0-.77.3-1.37.9-1.82.6-.44,1.33-.67,2.2-.67.46,0,.88.06,1.26.17Z"/><path class="cls-2" d="m168.2,3.06c-.43.02-.75.07-.95.14-.2.07-.33.21-.41.41-.07.2-.11.53-.11.99v9.14c0,.38.03.66.09.84.06.17.17.29.31.35.15.06.39.09.73.09h.88c.82,0,1.52-.37,2.12-1.1.59-.73.98-1.7,1.16-2.92h.41c-.04.41-.05.94-.05,1.58,0,1.15.04,2.1.13,2.84-.82-.04-2.19-.05-4.12-.05-2.62,0-4.57.02-5.87.05v-.36c.4-.02.69-.07.87-.14.19-.07.31-.21.38-.41.07-.2.1-.53.1-.99V4.61c0-.46-.03-.79-.1-.99-.07-.2-.19-.34-.38-.41-.19-.07-.48-.12-.87-.14v-.36c.61.04,1.56.05,2.84.05s2.17-.02,2.83-.05v.36Z"/><path class="cls-2" d="m174,14.98c-.38-.4-.57-.92-.57-1.57,0-.54.14-.99.42-1.34.28-.35.62-.63,1.03-.82.4-.19.92-.4,1.54-.61.66-.23,1.14-.44,1.45-.62.31-.19.46-.44.46-.77v-1.4c0-.5-.12-.9-.35-1.18-.23-.28-.6-.42-1.09-.42-.58,0-1.01.14-1.31.43.34.12.6.3.78.54.19.24.28.52.28.85,0,.41-.14.73-.41.97-.28.24-.61.36-1.01.36-.42,0-.74-.13-.97-.4-.23-.26-.34-.59-.34-.99,0-.34.08-.62.24-.86.16-.23.41-.45.75-.66.32-.19.72-.34,1.2-.45.47-.11.99-.16,1.56-.16s1.1.06,1.53.18c.43.12.79.32,1.08.61.26.26.44.59.53.97s.13.91.13,1.57v4.9c0,.29.03.49.08.61s.16.18.32.18c.18,0,.4-.1.65-.31l.18.31c-.54.44-1.2.67-1.98.67-.66,0-1.12-.13-1.39-.4s-.4-.62-.41-1.06c-.6.97-1.48,1.46-2.65,1.46-.77,0-1.34-.2-1.72-.59Zm4.33-1.3v-3.69c-.14.24-.45.5-.92.79-.47.3-.82.6-1.06.9-.24.3-.36.73-.36,1.3,0,.49.1.85.31,1.09s.47.35.81.35c.47,0,.88-.25,1.22-.74Z"/><path class="cls-2" d="m191.2,7.08c.6.8.9,1.95.9,3.46,0,1.76-.38,3.06-1.15,3.9s-1.76,1.25-2.97,1.25c-.83,0-1.5-.21-2.02-.63-.43-.04-.86.01-1.3.14-.43.13-.77.31-1.03.52l-.27-.16c.08-.3.13-.64.13-1.01V3.53c0-.55-.09-.95-.26-1.21s-.47-.38-.89-.38v-.38c.37.04.74.05,1.12.05,1.04,0,1.92-.08,2.63-.25v6.23c.25-.55.62-.98,1.1-1.27.48-.29,1.03-.44,1.66-.44.97,0,1.76.4,2.36,1.2Zm-2.3,7.12c.32-.74.49-1.88.49-3.4s-.14-2.54-.41-3.18c-.28-.64-.67-.96-1.19-.96-.38,0-.74.14-1.05.42-.32.28-.53.66-.64,1.14v6.61c.4.32.84.49,1.33.49.66,0,1.15-.37,1.48-1.12Z"/><path class="cls-1" d="m199.34,18.95h-.72V0h.72v18.95Z"/><path class="cls-1" d="m206.31,11.73c-.06-.5-.03-1.22-.03-1.58l.76-8.51h2.78l-.76,8.59c-.16,1.86.57,3.18,2.43,3.18s2.89-1.33,3.05-2.99l.8-8.78h2.79l-.77,8.67c-.32,3.35-2.53,5.84-6.1,5.84-2.79,0-4.59-1.8-4.94-4.41m12.94-2.89c.36-4.09,3.13-7.48,7.88-7.48,1.26,0,2.47.29,3.66,1.07l-.32,3.38c-1.09-1.46-2.4-1.68-3.61-1.68-2.96,0-4.59,2.06-4.82,4.66-.22,2.55,1.09,4.61,3.97,4.61,1.25,0,2.57-.36,3.97-1.76l-.31,3.47c-1.35.74-2.61,1.07-3.88,1.07-4.72,0-6.88-3.5-6.54-7.33m13.78-7.21h2.77l-1.02,11.56h3.98c.29,0,1.24-.02,1.5-.02-.02.14-.26,2.66-.26,2.66h-8.24l1.27-14.2m15.2-.64h-.2l-7.61,14.85h2.96l1.06-2.25h5.38l.67,2.25h2.93l-5.18-14.85m-.7,5.94c.09-.19.16-.45.2-.59h.05c.02.18.04.39.1.6.14.64,1.24,4.23,1.24,4.23h-3.52s1.88-4.14,1.93-4.25h0Z"/><polyline class="cls-3" points="4.77 9.12 4.77 10.63 8.19 15.79 1.36 15.79 3.45 12.83"/><polyline class="cls-4" points="4.77 8.81 4.77 7.31 1.36 2.14 8.19 2.14 6.09 5.1"/></g></svg>